<mxfile host="drawio-plugin" modified="2021-11-25T18:11:53.183Z" agent="5.0 (Windows NT 6.2; Win64; x64) AppleWebKit/537.36 (KHTML, like Gecko) Chrome/89.0.4389.114 Safari/537.36" etag="4szoo_H5fLP_SOMfseCk" version="14.7.4" type="embed"><diagram id="C5RBs43oDa-KdzZeNtuy" name="Page-1"><mxGraphModel dx="273" dy="133" grid="1" gridSize="10" guides="1" tooltips="1" connect="1" arrows="1" fold="1" page="1" pageScale="1" pageWidth="827" pageHeight="1169" math="0" shadow="0"><root><mxCell id="WIyWlLk6GJQsqaUBKTNV-0"/><mxCell id="WIyWlLk6GJQsqaUBKTNV-1" parent="WIyWlLk6GJQsqaUBKTNV-0"/><mxCell id="zkfFHV4jXpPFQw0GAbJ--0" value="User" style="swimlane;fontStyle=2;align=center;verticalAlign=top;childLayout=stackLayout;horizontal=1;startSize=26;horizontalStack=0;resizeParent=1;resizeLast=0;collapsible=1;marginBottom=0;rounded=0;shadow=0;strokeWidth=1;" parent="WIyWlLk6GJQsqaUBKTNV-1" vertex="1"><mxGeometry x="40" y="40" width="279.2452830188679" height="363.1764705882353" as="geometry"><mxRectangle x="230" y="140" width="160" height="26" as="alternateBounds"/></mxGeometry></mxCell><mxCell id="zkfFHV4jXpPFQw0GAbJ--1" value="id : int" style="text;align=left;verticalAlign=top;spacingLeft=4;spacingRight=4;overflow=hidden;rotatable=0;points=[[0,0.5],[1,0.5]];portConstraint=eastwest;" parent="zkfFHV4jXpPFQw0GAbJ--0" vertex="1"><mxGeometry y="26" width="279.2452830188679" height="32.11764705882353" as="geometry"/></mxCell><mxCell id="5" value="name : String" style="text;align=left;verticalAlign=top;spacingLeft=4;spacingRight=4;overflow=hidden;rotatable=0;points=[[0,0.5],[1,0.5]];portConstraint=eastwest;" vertex="1" parent="zkfFHV4jXpPFQw0GAbJ--0"><mxGeometry y="58.11764705882353" width="279.2452830188679" height="32.11764705882353" as="geometry"/></mxCell><mxCell id="zkfFHV4jXpPFQw0GAbJ--2" value="password : String" style="text;align=left;verticalAlign=top;spacingLeft=4;spacingRight=4;overflow=hidden;rotatable=0;points=[[0,0.5],[1,0.5]];portConstraint=eastwest;rounded=0;shadow=0;html=0;" parent="zkfFHV4jXpPFQw0GAbJ--0" vertex="1"><mxGeometry y="90.23529411764706" width="279.2452830188679" height="32.11764705882353" as="geometry"/></mxCell><mxCell id="zkfFHV4jXpPFQw0GAbJ--3" value="profilePicture : String" style="text;align=left;verticalAlign=top;spacingLeft=4;spacingRight=4;overflow=hidden;rotatable=0;points=[[0,0.5],[1,0.5]];portConstraint=eastwest;rounded=0;shadow=0;html=0;" parent="zkfFHV4jXpPFQw0GAbJ--0" vertex="1"><mxGeometry y="122.35294117647058" width="279.2452830188679" height="32.11764705882353" as="geometry"/></mxCell><mxCell id="V46ISVz3UI1cdyZlpuzM-2" value="ranking : int" style="text;align=left;verticalAlign=top;spacingLeft=4;spacingRight=4;overflow=hidden;rotatable=0;points=[[0,0.5],[1,0.5]];portConstraint=eastwest;rounded=0;shadow=0;html=0;" parent="zkfFHV4jXpPFQw0GAbJ--0" vertex="1"><mxGeometry y="154.47058823529412" width="279.2452830188679" height="32.11764705882353" as="geometry"/></mxCell><mxCell id="V46ISVz3UI1cdyZlpuzM-1" value="friends : List&lt;User&gt;" style="text;align=left;verticalAlign=top;spacingLeft=4;spacingRight=4;overflow=hidden;rotatable=0;points=[[0,0.5],[1,0.5]];portConstraint=eastwest;rounded=0;shadow=0;html=0;" parent="zkfFHV4jXpPFQw0GAbJ--0" vertex="1"><mxGeometry y="186.58823529411765" width="279.2452830188679" height="32.11764705882353" as="geometry"/></mxCell><mxCell id="56" value="status : enum" style="text;align=left;verticalAlign=top;spacingLeft=4;spacingRight=4;overflow=hidden;rotatable=0;points=[[0,0.5],[1,0.5]];portConstraint=eastwest;rounded=0;shadow=0;html=0;" vertex="1" parent="zkfFHV4jXpPFQw0GAbJ--0"><mxGeometry y="218.7058823529412" width="279.2452830188679" height="32.11764705882353" as="geometry"/></mxCell><mxCell id="zkfFHV4jXpPFQw0GAbJ--4" value="" style="line;html=1;strokeWidth=1;align=left;verticalAlign=middle;spacingTop=-1;spacingLeft=3;spacingRight=3;rotatable=0;labelPosition=right;points=[];portConstraint=eastwest;" parent="zkfFHV4jXpPFQw0GAbJ--0" vertex="1"><mxGeometry y="250.82352941176472" width="279.2452830188679" height="9.882352941176471" as="geometry"/></mxCell><mxCell id="0" value="+ addFriend()" style="text;align=left;verticalAlign=top;spacingLeft=4;spacingRight=4;overflow=hidden;rotatable=0;points=[[0,0.5],[1,0.5]];portConstraint=eastwest;" vertex="1" parent="zkfFHV4jXpPFQw0GAbJ--0"><mxGeometry y="260.7058823529412" width="279.2452830188679" height="32.11764705882353" as="geometry"/></mxCell><mxCell id="2" value="+ viewFriends() : List&lt;User&gt;" style="text;align=left;verticalAlign=top;spacingLeft=4;spacingRight=4;overflow=hidden;rotatable=0;points=[[0,0.5],[1,0.5]];portConstraint=eastwest;" vertex="1" parent="zkfFHV4jXpPFQw0GAbJ--0"><mxGeometry y="292.82352941176475" width="279.2452830188679" height="32.11764705882353" as="geometry"/></mxCell><mxCell id="1" value="+ deleteFriend()" style="text;align=left;verticalAlign=top;spacingLeft=4;spacingRight=4;overflow=hidden;rotatable=0;points=[[0,0.5],[1,0.5]];portConstraint=eastwest;" vertex="1" parent="zkfFHV4jXpPFQw0GAbJ--0"><mxGeometry y="324.9411764705883" width="279.2452830188679" height="32.11764705882353" as="geometry"/></mxCell><mxCell id="22" style="edgeStyle=orthogonalEdgeStyle;rounded=0;orthogonalLoop=1;jettySize=auto;html=1;endArrow=diamondThin;endFill=1;startSize=12;endSize=12;" edge="1" parent="WIyWlLk6GJQsqaUBKTNV-1" source="7" target="zkfFHV4jXpPFQw0GAbJ--0"><mxGeometry x="40" y="40" as="geometry"><Array as="points"><mxPoint x="370" y="141"/><mxPoint x="370" y="141"/></Array></mxGeometry></mxCell><mxCell id="24" value="1" style="edgeLabel;html=1;align=center;verticalAlign=middle;resizable=0;points=[];" vertex="1" connectable="0" parent="22"><mxGeometry x="-0.6886" relative="1" as="geometry"><mxPoint y="-9" as="offset"/></mxGeometry></mxCell><mxCell id="25" value="n" style="edgeLabel;html=1;align=center;verticalAlign=middle;resizable=0;points=[];" vertex="1" connectable="0" parent="22"><mxGeometry x="0.4121" relative="1" as="geometry"><mxPoint x="-1" y="-10" as="offset"/></mxGeometry></mxCell><mxCell id="7" value="UserManagement" style="swimlane;fontStyle=2;align=center;verticalAlign=top;childLayout=stackLayout;horizontal=1;startSize=26;horizontalStack=0;resizeParent=1;resizeLast=0;collapsible=1;marginBottom=0;rounded=0;shadow=0;strokeWidth=1;" vertex="1" parent="WIyWlLk6GJQsqaUBKTNV-1"><mxGeometry x="479.9956603773585" y="40.00411764705882" width="279.2452830188679" height="202.58823529411765" as="geometry"><mxRectangle x="230" y="140" width="160" height="26" as="alternateBounds"/></mxGeometry></mxCell><mxCell id="14" value="" style="line;html=1;strokeWidth=1;align=left;verticalAlign=middle;spacingTop=-1;spacingLeft=3;spacingRight=3;rotatable=0;labelPosition=right;points=[];portConstraint=eastwest;" vertex="1" parent="7"><mxGeometry y="26" width="279.2452830188679" height="9.882352941176471" as="geometry"/></mxCell><mxCell id="15" value="+ createUser(int id) : User" style="text;align=left;verticalAlign=top;spacingLeft=4;spacingRight=4;overflow=hidden;rotatable=0;points=[[0,0.5],[1,0.5]];portConstraint=eastwest;" vertex="1" parent="7"><mxGeometry y="35.88235294117647" width="279.2452830188679" height="32.11764705882353" as="geometry"/></mxCell><mxCell id="16" value="+ updateUser(int id) : void" style="text;align=left;verticalAlign=top;spacingLeft=4;spacingRight=4;overflow=hidden;rotatable=0;points=[[0,0.5],[1,0.5]];portConstraint=eastwest;" vertex="1" parent="7"><mxGeometry y="68" width="279.2452830188679" height="32.11764705882353" as="geometry"/></mxCell><mxCell id="17" value="+ deleteUser(int id) : void" style="text;align=left;verticalAlign=top;spacingLeft=4;spacingRight=4;overflow=hidden;rotatable=0;points=[[0,0.5],[1,0.5]];portConstraint=eastwest;" vertex="1" parent="7"><mxGeometry y="100.11764705882354" width="279.2452830188679" height="32.11764705882353" as="geometry"/></mxCell><mxCell id="23" value="+ getUser(int id) : User" style="text;align=left;verticalAlign=top;spacingLeft=4;spacingRight=4;overflow=hidden;rotatable=0;points=[[0,0.5],[1,0.5]];portConstraint=eastwest;" vertex="1" parent="7"><mxGeometry y="132.23529411764707" width="279.2452830188679" height="32.11764705882353" as="geometry"/></mxCell><mxCell id="64" value="+ setStatus() : void" style="text;align=left;verticalAlign=top;spacingLeft=4;spacingRight=4;overflow=hidden;rotatable=0;points=[[0,0.5],[1,0.5]];portConstraint=eastwest;rounded=0;shadow=0;html=0;" vertex="1" parent="7"><mxGeometry y="164.3529411764706" width="279.2452830188679" height="32.11764705882353" as="geometry"/></mxCell><mxCell id="83" style="edgeStyle=orthogonalEdgeStyle;rounded=0;orthogonalLoop=1;jettySize=auto;html=1;startArrow=none;startFill=0;endArrow=diamondThin;endFill=0;startSize=12;endSize=12;" edge="1" parent="WIyWlLk6GJQsqaUBKTNV-1" source="26" target="68"><mxGeometry relative="1" as="geometry"><Array as="points"><mxPoint x="180" y="710"/><mxPoint x="180" y="710"/></Array></mxGeometry></mxCell><mxCell id="86" value="1" style="edgeLabel;html=1;align=center;verticalAlign=middle;resizable=0;points=[];" vertex="1" connectable="0" parent="83"><mxGeometry x="-0.8083" relative="1" as="geometry"><mxPoint x="-10" y="6" as="offset"/></mxGeometry></mxCell><mxCell id="87" value="n" style="edgeLabel;html=1;align=center;verticalAlign=middle;resizable=0;points=[];" vertex="1" connectable="0" parent="83"><mxGeometry x="0.5139" relative="1" as="geometry"><mxPoint x="-10" y="3" as="offset"/></mxGeometry></mxCell><mxCell id="26" value="Match" style="swimlane;fontStyle=2;align=center;verticalAlign=top;childLayout=stackLayout;horizontal=1;startSize=26;horizontalStack=0;resizeParent=1;resizeLast=0;collapsible=1;marginBottom=0;rounded=0;shadow=0;strokeWidth=1;" vertex="1" parent="WIyWlLk6GJQsqaUBKTNV-1"><mxGeometry x="40" y="440.0005882352941" width="279.2452830188679" height="202.58823529411765" as="geometry"><mxRectangle x="230" y="140" width="160" height="26" as="alternateBounds"/></mxGeometry></mxCell><mxCell id="27" value="id : int" style="text;align=left;verticalAlign=top;spacingLeft=4;spacingRight=4;overflow=hidden;rotatable=0;points=[[0,0.5],[1,0.5]];portConstraint=eastwest;" vertex="1" parent="26"><mxGeometry y="26" width="279.2452830188679" height="32.11764705882353" as="geometry"/></mxCell><mxCell id="28" value="User : List&lt;Users&gt;" style="text;align=left;verticalAlign=top;spacingLeft=4;spacingRight=4;overflow=hidden;rotatable=0;points=[[0,0.5],[1,0.5]];portConstraint=eastwest;" vertex="1" parent="26"><mxGeometry y="58.11764705882353" width="279.2452830188679" height="32.11764705882353" as="geometry"/></mxCell><mxCell id="29" value="mode : enum" style="text;align=left;verticalAlign=top;spacingLeft=4;spacingRight=4;overflow=hidden;rotatable=0;points=[[0,0.5],[1,0.5]];portConstraint=eastwest;rounded=0;shadow=0;html=0;" vertex="1" parent="26"><mxGeometry y="90.23529411764706" width="279.2452830188679" height="32.11764705882353" as="geometry"/></mxCell><mxCell id="37" value="date : datetime" style="text;align=left;verticalAlign=top;spacingLeft=4;spacingRight=4;overflow=hidden;rotatable=0;points=[[0,0.5],[1,0.5]];portConstraint=eastwest;rounded=0;shadow=0;html=0;" vertex="1" parent="26"><mxGeometry y="122.35294117647058" width="279.2452830188679" height="32.11764705882353" as="geometry"/></mxCell><mxCell id="65" value="status : enum" style="text;align=left;verticalAlign=top;spacingLeft=4;spacingRight=4;overflow=hidden;rotatable=0;points=[[0,0.5],[1,0.5]];portConstraint=eastwest;rounded=0;shadow=0;html=0;" vertex="1" parent="26"><mxGeometry y="154.47058823529412" width="279.2452830188679" height="32.11764705882353" as="geometry"/></mxCell><mxCell id="33" value="" style="line;html=1;strokeWidth=1;align=left;verticalAlign=middle;spacingTop=-1;spacingLeft=3;spacingRight=3;rotatable=0;labelPosition=right;points=[];portConstraint=eastwest;" vertex="1" parent="26"><mxGeometry y="186.58823529411765" width="279.2452830188679" height="9.882352941176471" as="geometry"/></mxCell><mxCell id="49" style="edgeStyle=orthogonalEdgeStyle;rounded=0;orthogonalLoop=1;jettySize=auto;html=1;endArrow=diamondThin;endFill=1;startSize=12;endSize=12;" edge="1" parent="WIyWlLk6GJQsqaUBKTNV-1" source="38" target="26"><mxGeometry x="40" y="40" as="geometry"/></mxCell><mxCell id="50" value="1" style="edgeLabel;html=1;align=center;verticalAlign=middle;resizable=0;points=[];" vertex="1" connectable="0" parent="49"><mxGeometry x="-0.7757" relative="1" as="geometry"><mxPoint x="1" y="-8" as="offset"/></mxGeometry></mxCell><mxCell id="51" value="n" style="edgeLabel;html=1;align=center;verticalAlign=middle;resizable=0;points=[];" vertex="1" connectable="0" parent="49"><mxGeometry x="0.3672" y="1" relative="1" as="geometry"><mxPoint x="-11" y="-9" as="offset"/></mxGeometry></mxCell><mxCell id="52" style="edgeStyle=orthogonalEdgeStyle;rounded=0;orthogonalLoop=1;jettySize=auto;html=1;endArrow=none;endFill=0;startSize=12;endSize=12;startArrow=diamondThin;startFill=0;" edge="1" parent="WIyWlLk6GJQsqaUBKTNV-1" source="38" target="zkfFHV4jXpPFQw0GAbJ--0"><mxGeometry x="40" y="40" as="geometry"><Array as="points"><mxPoint x="592" y="280"/></Array></mxGeometry></mxCell><mxCell id="53" value="1" style="edgeLabel;html=1;align=center;verticalAlign=middle;resizable=0;points=[];" vertex="1" connectable="0" parent="52"><mxGeometry x="-0.9476" y="-1" relative="1" as="geometry"><mxPoint x="9" as="offset"/></mxGeometry></mxCell><mxCell id="54" value="n" style="edgeLabel;html=1;align=center;verticalAlign=middle;resizable=0;points=[];" vertex="1" connectable="0" parent="52"><mxGeometry x="0.8662" y="-2" relative="1" as="geometry"><mxPoint x="8" y="-6" as="offset"/></mxGeometry></mxCell><mxCell id="38" value="History" style="swimlane;fontStyle=2;align=center;verticalAlign=top;childLayout=stackLayout;horizontal=1;startSize=26;horizontalStack=0;resizeParent=1;resizeLast=0;collapsible=1;marginBottom=0;rounded=0;shadow=0;strokeWidth=1;" vertex="1" parent="WIyWlLk6GJQsqaUBKTNV-1"><mxGeometry x="424.14566037735847" y="329.9964705882353" width="335.0943396226415" height="216.1764705882353" as="geometry"><mxRectangle x="230" y="140" width="160" height="26" as="alternateBounds"/></mxGeometry></mxCell><mxCell id="39" value="Matches : List&lt;Match&gt;" style="text;align=left;verticalAlign=top;spacingLeft=4;spacingRight=4;overflow=hidden;rotatable=0;points=[[0,0.5],[1,0.5]];portConstraint=eastwest;" vertex="1" parent="38"><mxGeometry y="26" width="335.0943396226415" height="32.11764705882353" as="geometry"/></mxCell><mxCell id="43" value="" style="line;html=1;strokeWidth=1;align=left;verticalAlign=middle;spacingTop=-1;spacingLeft=3;spacingRight=3;rotatable=0;labelPosition=right;points=[];portConstraint=eastwest;" vertex="1" parent="38"><mxGeometry y="58.11764705882353" width="335.0943396226415" height="9.882352941176471" as="geometry"/></mxCell><mxCell id="44" value="+ getMatch(int id) : Match" style="text;align=left;verticalAlign=top;spacingLeft=4;spacingRight=4;overflow=hidden;rotatable=0;points=[[0,0.5],[1,0.5]];portConstraint=eastwest;" vertex="1" parent="38"><mxGeometry y="68" width="335.0943396226415" height="32.11764705882353" as="geometry"/></mxCell><mxCell id="47" value="+ queryMatch(String query) : List&lt;Match&gt;" style="text;align=left;verticalAlign=top;spacingLeft=4;spacingRight=4;overflow=hidden;rotatable=0;points=[[0,0.5],[1,0.5]];portConstraint=eastwest;" vertex="1" parent="38"><mxGeometry y="100.11764705882354" width="335.0943396226415" height="32.11764705882353" as="geometry"/></mxCell><mxCell id="45" value="+ saveMatch(Match match) : void" style="text;align=left;verticalAlign=top;spacingLeft=4;spacingRight=4;overflow=hidden;rotatable=0;points=[[0,0.5],[1,0.5]];portConstraint=eastwest;" vertex="1" parent="38"><mxGeometry y="132.23529411764707" width="335.0943396226415" height="32.11764705882353" as="geometry"/></mxCell><mxCell id="46" value="+ deleteMatch(Match match) : void" style="text;align=left;verticalAlign=top;spacingLeft=4;spacingRight=4;overflow=hidden;rotatable=0;points=[[0,0.5],[1,0.5]];portConstraint=eastwest;" vertex="1" parent="38"><mxGeometry y="164.3529411764706" width="335.0943396226415" height="32.11764705882353" as="geometry"/></mxCell><mxCell id="66" style="edgeStyle=orthogonalEdgeStyle;rounded=0;orthogonalLoop=1;jettySize=auto;html=1;startArrow=none;startFill=0;endArrow=diamondThin;endFill=1;startSize=12;endSize=12;" edge="1" parent="WIyWlLk6GJQsqaUBKTNV-1" source="57" target="26"><mxGeometry x="40" y="40" as="geometry"><Array as="points"><mxPoint x="220" y="680"/></Array></mxGeometry></mxCell><mxCell id="84" value="1" style="edgeLabel;html=1;align=center;verticalAlign=middle;resizable=0;points=[];" vertex="1" connectable="0" parent="66"><mxGeometry relative="1" as="geometry"><mxPoint x="118" y="-10" as="offset"/></mxGeometry></mxCell><mxCell id="85" value="n" style="edgeLabel;html=1;align=center;verticalAlign=middle;resizable=0;points=[];" vertex="1" connectable="0" parent="66"><mxGeometry relative="1" as="geometry"><mxPoint x="-80" y="-30" as="offset"/></mxGeometry></mxCell><mxCell id="57" value="Match-management" style="swimlane;fontStyle=2;align=center;verticalAlign=top;childLayout=stackLayout;horizontal=1;startSize=26;horizontalStack=0;resizeParent=1;resizeLast=0;collapsible=1;marginBottom=0;rounded=0;shadow=0;strokeWidth=1;" vertex="1" parent="WIyWlLk6GJQsqaUBKTNV-1"><mxGeometry x="439.99566037735843" y="599.9988235294118" width="335.0943396226415" height="172.94117647058823" as="geometry"><mxRectangle x="230" y="140" width="160" height="26" as="alternateBounds"/></mxGeometry></mxCell><mxCell id="58" value="Matches : List&lt;Match&gt;" style="text;align=left;verticalAlign=top;spacingLeft=4;spacingRight=4;overflow=hidden;rotatable=0;points=[[0,0.5],[1,0.5]];portConstraint=eastwest;" vertex="1" parent="57"><mxGeometry y="26" width="335.0943396226415" height="32.11764705882353" as="geometry"/></mxCell><mxCell id="59" value="" style="line;html=1;strokeWidth=1;align=left;verticalAlign=middle;spacingTop=-1;spacingLeft=3;spacingRight=3;rotatable=0;labelPosition=right;points=[];portConstraint=eastwest;" vertex="1" parent="57"><mxGeometry y="58.11764705882353" width="335.0943396226415" height="9.882352941176471" as="geometry"/></mxCell><mxCell id="61" value="+ searchPlayers() : void" style="text;align=left;verticalAlign=top;spacingLeft=4;spacingRight=4;overflow=hidden;rotatable=0;points=[[0,0.5],[1,0.5]];portConstraint=eastwest;" vertex="1" parent="57"><mxGeometry y="68" width="335.0943396226415" height="32.11764705882353" as="geometry"/></mxCell><mxCell id="60" value="+ startMatch() : void" style="text;align=left;verticalAlign=top;spacingLeft=4;spacingRight=4;overflow=hidden;rotatable=0;points=[[0,0.5],[1,0.5]];portConstraint=eastwest;" vertex="1" parent="57"><mxGeometry y="100.11764705882354" width="335.0943396226415" height="32.11764705882353" as="geometry"/></mxCell><mxCell id="62" value="+ endMatch() : void" style="text;align=left;verticalAlign=top;spacingLeft=4;spacingRight=4;overflow=hidden;rotatable=0;points=[[0,0.5],[1,0.5]];portConstraint=eastwest;" vertex="1" parent="57"><mxGeometry y="132.23529411764707" width="335.0943396226415" height="32.11764705882353" as="geometry"/></mxCell><mxCell id="68" value="Game Engine" style="swimlane;fontStyle=2;align=center;verticalAlign=top;childLayout=stackLayout;horizontal=1;startSize=26;horizontalStack=0;resizeParent=1;resizeLast=0;collapsible=1;marginBottom=0;rounded=0;shadow=0;strokeWidth=1;" vertex="1" parent="WIyWlLk6GJQsqaUBKTNV-1"><mxGeometry x="39.99566037735843" y="729.9988235294118" width="335.0943396226415" height="389.1764705882353" as="geometry"><mxRectangle x="230" y="140" width="160" height="26" as="alternateBounds"/></mxGeometry></mxCell><mxCell id="69" value="- webSocket : websocket" style="text;align=left;verticalAlign=top;spacingLeft=4;spacingRight=4;overflow=hidden;rotatable=0;points=[[0,0.5],[1,0.5]];portConstraint=eastwest;" vertex="1" parent="68"><mxGeometry y="26" width="335.0943396226415" height="32.11764705882353" as="geometry"/></mxCell><mxCell id="74" value="- score : int" style="text;align=left;verticalAlign=top;spacingLeft=4;spacingRight=4;overflow=hidden;rotatable=0;points=[[0,0.5],[1,0.5]];portConstraint=eastwest;" vertex="1" parent="68"><mxGeometry y="58.11764705882353" width="335.0943396226415" height="32.11764705882353" as="geometry"/></mxCell><mxCell id="75" value="- timer : datetime" style="text;align=left;verticalAlign=top;spacingLeft=4;spacingRight=4;overflow=hidden;rotatable=0;points=[[0,0.5],[1,0.5]];portConstraint=eastwest;" vertex="1" parent="68"><mxGeometry y="90.23529411764706" width="335.0943396226415" height="32.11764705882353" as="geometry"/></mxCell><mxCell id="70" value="" style="line;html=1;strokeWidth=1;align=left;verticalAlign=middle;spacingTop=-1;spacingLeft=3;spacingRight=3;rotatable=0;labelPosition=right;points=[];portConstraint=eastwest;" vertex="1" parent="68"><mxGeometry y="122.35294117647058" width="335.0943396226415" height="9.882352941176471" as="geometry"/></mxCell><mxCell id="72" value="+ connectSocket(websocket socket) : void" style="text;align=left;verticalAlign=top;spacingLeft=4;spacingRight=4;overflow=hidden;rotatable=0;points=[[0,0.5],[1,0.5]];portConstraint=eastwest;" vertex="1" parent="68"><mxGeometry y="132.23529411764704" width="335.0943396226415" height="32.11764705882353" as="geometry"/></mxCell><mxCell id="82" value="+ deleteSocket(websocket socket) : void" style="text;align=left;verticalAlign=top;spacingLeft=4;spacingRight=4;overflow=hidden;rotatable=0;points=[[0,0.5],[1,0.5]];portConstraint=eastwest;" vertex="1" parent="68"><mxGeometry y="164.35294117647058" width="335.0943396226415" height="32.11764705882353" as="geometry"/></mxCell><mxCell id="78" value="+ startTimer() : void" style="text;align=left;verticalAlign=top;spacingLeft=4;spacingRight=4;overflow=hidden;rotatable=0;points=[[0,0.5],[1,0.5]];portConstraint=eastwest;" vertex="1" parent="68"><mxGeometry y="196.47058823529412" width="335.0943396226415" height="32.11764705882353" as="geometry"/></mxCell><mxCell id="73" value="+ endTimer() : void" style="text;align=left;verticalAlign=top;spacingLeft=4;spacingRight=4;overflow=hidden;rotatable=0;points=[[0,0.5],[1,0.5]];portConstraint=eastwest;" vertex="1" parent="68"><mxGeometry y="228.58823529411765" width="335.0943396226415" height="32.11764705882353" as="geometry"/></mxCell><mxCell id="76" value="+ moveBlock() : void" style="text;align=left;verticalAlign=top;spacingLeft=4;spacingRight=4;overflow=hidden;rotatable=0;points=[[0,0.5],[1,0.5]];portConstraint=eastwest;" vertex="1" parent="68"><mxGeometry y="260.70588235294116" width="335.0943396226415" height="32.11764705882353" as="geometry"/></mxCell><mxCell id="77" value="+ generateBlock() : void" style="text;align=left;verticalAlign=top;spacingLeft=4;spacingRight=4;overflow=hidden;rotatable=0;points=[[0,0.5],[1,0.5]];portConstraint=eastwest;" vertex="1" parent="68"><mxGeometry y="292.8235294117647" width="335.0943396226415" height="32.11764705882353" as="geometry"/></mxCell><mxCell id="80" value="+ checkCollision() : void" style="text;align=left;verticalAlign=top;spacingLeft=4;spacingRight=4;overflow=hidden;rotatable=0;points=[[0,0.5],[1,0.5]];portConstraint=eastwest;" vertex="1" parent="68"><mxGeometry y="324.94117647058823" width="335.0943396226415" height="32.11764705882353" as="geometry"/></mxCell><mxCell id="81" value="+ rotateBlock() : void" style="text;align=left;verticalAlign=top;spacingLeft=4;spacingRight=4;overflow=hidden;rotatable=0;points=[[0,0.5],[1,0.5]];portConstraint=eastwest;" vertex="1" parent="68"><mxGeometry y="357.05882352941177" width="335.0943396226415" height="32.11764705882353" as="geometry"/></mxCell></root></mxGraphModel></diagram></mxfile>